<?xml version="1.0" standalone="no"?>
<!DOCTYPE svg PUBLIC "-//W3C//DTD SVG 20010904//EN"
 "http://www.w3.org/TR/2001/REC-SVG-20010904/DTD/svg10.dtd">
<svg version="1.0" xmlns="http://www.w3.org/2000/svg"
 width="534.000000pt" height="472.000000pt" viewBox="0 0 534.000000 472.000000"
 preserveAspectRatio="xMidYMid meet">

<g transform="translate(0.000000,472.000000) scale(0.100000,-0.100000)"
fill="#000000" stroke="none">
<path d="M2020 4203 c-43 -39 -49 -87 -18 -133 35 -52 98 -54 156 -5 l30 25
61 -60 c135 -133 253 -381 330 -691 38 -154 81 -452 81 -564 l0 -83 -31 -7
c-37 -8 -40 -5 -64 60 -59 160 -212 431 -331 586 -178 231 -452 450 -739 589
-308 150 -525 206 -836 217 -179 6 -277 -1 -285 -22 -3 -7 12 -40 34 -73 79
-123 127 -308 157 -607 34 -341 83 -553 168 -721 91 -181 238 -358 378 -457
120 -85 316 -168 469 -199 l65 -13 -64 -39 c-131 -80 -283 -251 -360 -405 -49
-98 -96 -245 -110 -344 -18 -128 -14 -319 10 -458 12 -68 25 -132 30 -141 12
-22 102 -24 224 -7 155 21 344 99 515 213 219 147 439 437 440 584 0 23 -4 42
-9 42 -5 0 -38 -44 -74 -98 -127 -190 -293 -333 -502 -432 -135 -65 -189 -82
-325 -104 -108 -17 -105 -19 -117 64 -22 153 1 445 48 594 19 65 101 202 176
297 42 53 132 134 140 125 2 -1 -10 -30 -27 -63 -56 -114 -73 -201 -67 -342 2
-71 12 -152 21 -186 23 -82 57 -149 79 -153 23 -5 145 58 222 113 147 106 263
251 367 459 l70 139 27 -49 c61 -113 145 -218 304 -382 263 -272 283 -304 275
-434 -7 -112 -65 -205 -152 -247 -61 -30 -164 -29 -231 3 -167 77 -216 318
-84 415 39 29 39 61 1 61 -37 0 -103 -57 -140 -118 -25 -43 -27 -56 -27 -147
0 -91 3 -105 29 -154 112 -213 362 -297 574 -193 151 74 252 236 252 404 0 90
-32 228 -67 288 -44 76 -108 154 -240 292 l-126 133 29 7 c16 4 47 12 69 18
57 14 159 76 226 138 l57 52 27 -82 c68 -204 155 -347 297 -488 119 -118 329
-247 366 -224 20 13 58 130 73 227 13 84 6 260 -14 332 -8 28 -28 78 -46 112
-36 73 -37 77 -11 63 64 -34 201 -194 253 -295 52 -103 97 -303 104 -465 6
-142 -8 -308 -27 -320 -32 -20 -251 32 -404 97 -228 97 -439 278 -551 476 -22
38 -44 68 -50 66 -5 -2 -10 -23 -9 -46 0 -54 82 -220 153 -314 58 -76 160
-175 258 -249 74 -57 270 -156 373 -191 131 -43 364 -65 388 -36 13 15 38 144
53 267 14 120 5 307 -21 423 -26 119 -93 273 -165 380 -64 97 -186 216 -288
282 l-62 39 45 9 c25 5 90 22 145 39 312 95 540 287 699 590 103 194 148 377
186 749 21 207 56 391 92 487 11 30 40 83 65 119 24 36 42 71 39 78 -3 8 -26
17 -52 21 -68 10 -394 -3 -489 -20 -462 -80 -969 -370 -1281 -733 -72 -83
-167 -214 -224 -310 -40 -68 -180 -366 -180 -384 0 -14 -34 -11 -55 5 -16 12
-18 23 -12 122 11 171 43 400 72 504 97 352 194 555 338 707 l65 68 34 -31
c42 -40 72 -49 109 -33 63 26 80 120 30 170 -25 25 -37 29 -82 29 -129 0 -261
-128 -388 -375 -101 -199 -188 -543 -227 -902 -3 -35 -10 -61 -14 -58 -4 3
-11 40 -15 82 -45 492 -210 949 -415 1155 -100 99 -207 127 -270 71z m-1190
-279 c541 -121 965 -345 1285 -676 153 -158 302 -377 364 -536 28 -69 26 -86
-6 -108 -16 -10 -52 -40 -80 -67 -52 -49 -53 -49 -62 -26 -42 109 -117 269
-148 316 -49 74 -199 231 -276 289 -86 64 -187 122 -285 161 -117 47 -279 85
-350 81 l-57 -3 1 -95 c1 -196 92 -425 243 -612 126 -157 379 -320 601 -389
58 -17 110 -37 117 -43 9 -8 10 -29 2 -85 -30 -212 -145 -462 -275 -596 -69
-71 -155 -138 -166 -127 -18 18 -29 174 -19 262 19 150 68 268 151 362 56 64
51 81 -25 91 -131 17 -330 59 -398 84 -170 63 -381 244 -479 410 -99 168 -166
390 -188 623 -26 282 -33 342 -55 450 -13 63 -33 142 -45 175 -36 103 -37 95
6 88 22 -3 86 -16 144 -29z m3960 21 c0 -6 -12 -45 -25 -87 -29 -92 -70 -327
-85 -488 -12 -129 -41 -305 -71 -425 -102 -411 -369 -686 -762 -785 -61 -15
-151 -31 -199 -35 -48 -4 -95 -13 -104 -19 -14 -11 -10 -19 36 -72 55 -62 95
-134 126 -224 16 -45 19 -84 19 -217 0 -108 -4 -166 -11 -173 -9 -9 -22 -5
-52 14 -130 82 -249 248 -332 463 -45 115 -78 305 -56 321 6 4 49 21 96 36
109 35 284 120 382 186 138 93 303 278 368 415 51 106 87 222 106 338 24 146
18 161 -59 165 -106 6 -320 -60 -472 -146 -116 -64 -191 -120 -276 -204 -134
-131 -197 -231 -274 -432 l-38 -99 -41 45 c-23 25 -60 60 -83 78 -52 38 -51
44 13 175 126 260 312 482 564 674 135 103 223 157 386 239 227 114 388 170
679 236 155 36 167 37 165 21z m-3280 -797 c80 -26 182 -76 275 -136 179 -115
317 -323 375 -563 33 -139 34 -138 -104 -82 -278 113 -486 301 -601 545 -39
83 -65 175 -65 230 0 44 -1 44 120 6z m2550 -11 c0 -99 -84 -292 -181 -411
-88 -110 -215 -215 -360 -299 -53 -30 -215 -97 -235 -97 -20 0 -18 47 6 140
64 252 240 475 480 608 65 36 223 91 263 92 24 0 27 -4 27 -33z m-1186 -586
c75 -37 126 -90 165 -171 21 -46 26 -69 26 -145 0 -84 -2 -94 -34 -153 -19
-35 -56 -83 -83 -107 -65 -59 -130 -80 -243 -80 -78 0 -97 4 -147 28 -137 67
-218 258 -174 409 19 65 88 162 141 197 105 70 235 78 349 22z"/>
</g>
</svg>
